#!OML:ASF Y:\EmotionMaleHayes\Project 1\Capture day 1\Session 1\Male1.ASF
:FULLY-SPECIFIED
:DEGREES
231
root -22.176 16.1338 0.900442 0.627624 82.7524 -1.15465
lowerback 9.84056 3.86149 -1.33906
upperback 2.56416 5.02515 -1.40797
thorax -2.81899 2.53749 -1.3156
lowerneck -23.3857 0.207813 0.458342
upperneck 19.853 -0.138544 1.24633
head 10.1968 0.147394 0.351029
rclavicle 2.3059e-014 7.95139e-016
rhumerus -32.4667 9.40336 -92.4179
rradius 37.7847
rwrist -0.537125
rhand -10.8994 -31.3122
rfingers 7.12502
rthumb 15.1174 -60.7401
lclavicle 2.3059e-014 7.95139e-016
lhumerus -36.9279 2.5395 83.4095
lradius 19.9936
lwrist -22.7286
lhand -13.124 -27.9035
lfingers 7.12502
lthumb 12.9737 1.67314
rfemur 18.2826 5.88054 17.406
rtibia 31.0952
rfoot -9.51228 -6.18983
rtoes 10.0548
lfemur -27.3423 3.59521 -17.1188
ltibia 35.5551
lfoot -11.8246 5.90614
ltoes -3.07601
232
root -22.0307 16.148 0.860239 5.79388 82.1266 3.91723
lowerback 9.67564 4.12491 -2.00368
upperback 2.5566 5.31014 -1.56876
thorax -2.77701 2.68253 -1.13652
lowerneck -23.659 0.0539519 0.150415
upperneck 19.9124 -0.262658 1.30312
head 10.2681 0.073629 0.403432
rclavicle 1.70955e-014 1.19271e-015
rhumerus -32.6886 8.70086 -91.9443
rradius 37.3467
rwrist -0.449666
rhand -10.9288 -31.1719
rfingers 7.12502
rthumb 15.0891 -60.6019
lclavicle 1.70955e-014 1.19271e-015
lhumerus -36.1098 2.74016 83.4567
lradius 19.931
lwrist -22.9492
lhand -12.1444 -27.2296
lfingers 7.12502
lthumb 13.9179 2.28464
rfemur 16.4251 6.25318 16.3204
rtibia 34.1795
rfoot -7.74216 -6.43306
rtoes 11.0309
lfemur -26.7078 3.67478 -18.2015
ltibia 35.3414
lfoot -12.3074 6.25313
ltoes -3.21753
233
root -21.8677 16.1685 0.832837 9.0987 82.4035 7.60752
lowerback 9.84832 4.04088 -2.49991
upperback 2.67667 5.15136 -1.6271
thorax -2.7847 2.60786 -0.911613
lowerneck -23.8262 0.0172057 0.196116
upperneck 19.9258 -0.313678 1.22702
head 10.3031 0.0441691 0.361103
rclavicle -3.47873e-015 7.55382e-015
rhumerus -33.1381 8.2345 -91.704
rradius 37.1414
rwrist -0.462967
rhand -10.9664 -31.5249
rfingers 7.12502
rthumb 15.0529 -60.9577
lclavicle -3.47873e-015 7.55382e-015
lhumerus -35.4292 2.70659 83.4043
lradius 19.9417
lwrist -23.0465
lhand -12.1297 -27.3292
lfingers 7.12502
lthumb 13.932 2.18406
rfemur 15.633 6.21723 15.9019
rtibia 36.6939
rfoot -5.96597 -7.29713
rtoes 14.1526
lfemur -25.4439 3.02923 -18.9673
ltibia 34.8765
lfoot -12.6927 6.39926
ltoes -3.32214
234
root -21.7118 16.1881 0.800511 12.8251 82.4365 11.6557
lowerback 10.0577 3.95447 -3.11124
upperback 2.70613 4.96969 -1.6832
thorax -2.91345 2.52181 -0.624391
lowerneck -23.8053 0.0733393 0.247031
upperneck 19.865 -0.244741 1.18961
head 10.2768 0.0742961 0.349757
rclavicle 1.51573e-014 6.75868e-015
rhumerus -33.655 8.03171 -91.5613
rradius 36.8776
rwrist -0.484683
rhand -11.0398 -31.569
rfingers 7.12502
rthumb 14.9821 -61.0071
lclavicle 1.51573e-014 6.75868e-015
lhumerus -34.8536 2.77618 83.3187
lradius 19.933
lwrist -23.2585
lhand -13.0525 -28.0497
lfingers 7.12502
lthumb 13.0426 1.52252
rfemur 14.5942 6.25262 15.3007
rtibia 39.2798
rfoot -3.60584 -8.18977
rtoes 19.4887
lfemur -24.2102 2.43998 -19.8188
ltibia 34.3109
lfoot -13.0331 6.71466
ltoes -3.55781
235
root -21.6034 16.1837 0.778018 12.2213 79.5467 10.1686
lowerback 9.3349 4.83512 -4.20762
upperback 2.27309 6.03564 -1.73583
thorax -3.08637 3.05387 -0.178237
lowerneck -23.7518 0.152947 0.182814
upperneck 19.7532 -0.120932 1.22741
head 10.226 0.129526 0.392279
rclavicle 5.06901e-015 3.22031e-014
rhumerus -34.0939 7.76898 -91.2971
rradius 36.4454
rwrist -0.309486
rhand -10.9863 -31.0465
rfingers 7.12502
rthumb 15.0337 -60.4807
lclavicle 5.06901e-015 3.22031e-014
lhumerus -34.2384 3.10193 83.2196
lradius 19.9193
lwrist -23.5225
lhand -13.1957 -28.0416
lfingers 7.12502
lthumb 12.9046 1.53944
rfemur 10.7076 8.50261 14.5541
rtibia 43.2465
rfoot -2.01285 -7.66941
rtoes 21.4408
lfemur -24.2455 4.39646 -20.0953
ltibia 33.7464
lfoot -13.5457 7.49537
ltoes -1.66775
236
root -21.4194 16.2384 0.74983 24.3845 82.0869 23.6058
lowerback 10.3056 3.79549 -5.12732
upperback 2.71579 4.5402 -1.93864
thorax -3.16183 2.32447 0.262684
lowerneck -23.8896 0.268808 0.33658
upperneck 19.7196 -0.00529279 1.17777
head 10.2378 0.187854 0.367381
rclavicle 2.57923e-014 -2.26615e-014
rhumerus -34.4824 7.21254 -91.0318
rradius 35.9864
rwrist 0.0892674
rhand -10.9573 -30.3036
rfingers 7.12502
rthumb 15.0616 -59.7357
lclavicle 2.57923e-014 -2.26615e-014
lhumerus -33.5598 2.94612 83.2298
lradius 20.0836
lwrist -23.4334
lhand -12.6122 -27.2413
lfingers 7.12502
lthumb 13.467 2.30333
rfemur 11.9307 6.20291 13.3709
rtibia 44.5029
rfoot -0.605724 -9.04074
rtoes 24.7123
lfemur -22.0321 1.32745 -22.1212
ltibia 33.0523
lfoot -14.0073 6.80404
ltoes 0.219987
237
root -21.2618 16.2674 0.729125 33.6364 82.3139 33.1622
lowerback 10.4028 3.51923 -6.19376
upperback 2.80934 4.06531 -2.17561
thorax -3.1475 2.09834 0.669251
lowerneck -23.5551 0.249946 0.319424
upperneck 19.5604 -0.0248839 1.1964
head 10.1207 0.178471 0.372187
rclavicle -4.12478e-015 3.97569e-016
rhumerus -34.7828 6.67511 -90.8695
rradius 35.5389
rwrist 0.345451
rhand -11.0095 -30.0033
rfingers 7.12502
rthumb 15.0114 -59.4391
lclavicle -4.12478e-015 3.97569e-016
lhumerus -32.9147 2.47896 83.2384
lradius 20.3386
lwrist -22.8721
lhand -12.1305 -27.3414
lfingers 7.12502
lthumb 13.9312 2.17193
rfemur 11.048 5.52667 12.1996
rtibia 46.6549
rfoot -0.371483 -9.28446
rtoes 24.99
lfemur -20.8552 0.359542 -23.6561
ltibia 32.5746
lfoot -14.3909 6.67782
ltoes 0.309147
238
root -21.1293 16.288 0.702802 35.3497 81.1663 34.7815
lowerback 10.2571 3.78178 -7.21964
upperback 2.68909 4.30836 -2.38696
thorax -3.26145 2.22955 0.983682
lowerneck -23.3793 0.321202 0.381818
upperneck 19.4179 0.0454283 1.23347
head 10.0378 0.218968 0.384676
rclavicle -9.93923e-017 -1.07344e-014
rhumerus -35.0496 6.2506 -90.6849
rradius 35.1203
rwrist 0.430608
rhand -10.8978 -30.3258
rfingers 7.12502
rthumb 15.1189 -59.7536
lclavicle -9.93923e-017 -1.07344e-014
lhumerus -32.3298 1.62832 83.4938
lradius 20.6956
lwrist -22.1228
lhand -12.1964 -27.19
lfingers 7.12502
lthumb 13.8677 2.32767
rfemur 8.83587 5.9697 11.0589
rtibia 49.4589
rfoot -0.196679 -8.96199
rtoes 23.4561
lfemur -20.0734 0.737405 -24.7966
ltibia 31.9934
lfoot -14.6641 6.98485
ltoes -0.16349
239
root -20.9797 16.322 0.67688 41.8807 81.473 41.72
lowerback 10.668 3.49688 -7.70886
upperback 2.73445 3.84672 -2.53726
thorax -3.42491 2.01177 1.13964
lowerneck -23.3872 0.36363 0.586194
upperneck 19.3609 0.0523959 1.15244
head 10.019 0.227223 0.323271
rclavicle -1.55052e-014 3.97569e-016
rhumerus -35.4276 5.79231 -90.5173
rradius 34.7727
rwrist 0.49705
rhand -10.6811 -30.8246
rfingers 7.12502
rthumb 15.3277 -60.2366
lclavicle -1.55052e-014 3.97569e-016
lhumerus -31.7315 0.97398 83.5857
lradius 20.9893
lwrist -21.8284
lhand -12.3152 -27.4097
lfingers 7.12502
lthumb 13.7533 2.1157
rfemur 7.94649 5.0777 10.3424
rtibia 51.5614
rfoot -0.460714 -8.60548
rtoes 22.1607
lfemur -18.7309 -0.172197 -25.8498
ltibia 31.3913
lfoot -14.8431 6.90246
ltoes -1.30877
240
root -20.85 16.3476 0.660153 40.6467 80.7941 40.472
lowerback 10.5953 3.67826 -8.27256
upperback 2.70944 4.03192 -2.54148
thorax -3.46093 2.1084 1.42036
lowerneck -23.4536 0.398979 0.788088
upperneck 19.2241 0.0965746 0.87226
head 9.9817 0.226275 0.197114
rclavicle 1.27719e-014 -1.47101e-014
rhumerus -35.6146 5.44955 -90.2865
rradius 34.3744
rwrist 0.682843
rhand -10.5553 -31.0673
rfingers 7.12502
rthumb 15.4489 -60.4699
lclavicle 1.27719e-014 -1.47101e-014
lhumerus -31.0046 0.361116 83.7956
lradius 21.3235
lwrist -21.5165
lhand -12.6548 -27.4029
lfingers 7.12502
lthumb 13.4259 2.14443
rfemur 5.79419 5.53959 10.061
rtibia 54.2726
rfoot -0.991294 -7.77362
rtoes 22.831
lfemur -17.7964 0.250581 -26.2814
ltibia 30.6396
lfoot -15.1367 7.11728
ltoes -1.67477
241
root -20.691 16.3842 0.646471 50.1973 81.5546 50.3467
lowerback 10.7213 3.09667 -8.77487
upperback 2.89275 3.21906 -2.54171
thorax -3.28869 1.70529 1.81847
lowerneck -23.5074 0.473393 0.791433
upperneck 19.0934 0.231352 0.72589
head 9.94421 0.268721 0.164703
rclavicle 3.2054e-014 2.5842e-014
rhumerus -35.805 5.13334 -90.0419
rradius 34.0331
rwrist 0.959508
rhand -10.4664 -31.2427
rfingers 7.12502
rthumb 15.5345 -60.6387
lclavicle 3.2054e-014 2.5842e-014
lhumerus -30.2494 -0.355798 84.0358
lradius 21.624
lwrist -20.9712
lhand -12.4584 -26.8446
lfingers 7.12502
lthumb 13.6153 2.69018
rfemur 5.19371 4.00889 9.50521
rtibia 55.6887
rfoot -1.38209 -7.308
rtoes 23.8438
lfemur -16.4808 -0.920676 -27.2173
ltibia 29.9478
lfoot -15.3164 6.61827
ltoes -1.56534
242
root -20.5621 16.4146 0.623312 49.5035 80.702 49.6748
lowerback 10.6961 3.2595 -9.40623
upperback 2.8891 3.36999 -2.72267
thorax -3.31376 1.78698 1.9548
lowerneck -23.5445 0.546716 0.71755
upperneck 18.9558 0.332493 0.826462
head 9.90121 0.320847 0.227179
rclavicle 3.2054e-014 -1.98785e-014
rhumerus -36.0015 4.74012 -89.8954
rradius 33.8025
rwrist 1.22016
rhand -10.4226 -31.5177
rfingers 7.12502
rthumb 15.5767 -60.9105
lclavicle 3.2054e-014 -1.98785e-014
lhumerus -29.5081 -1.31112 84.1612
lradius 22.0797
lwrist -20.2336
lhand -12.0319 -26.3555
lfingers 7.12502
lthumb 14.0263 3.15122
rfemur 3.23965 4.20619 8.69813
rtibia 57.5924
rfoot -1.45179 -6.42712
rtoes 23.7631
lfemur -15.4073 -0.347576 -28.0288
ltibia 28.9874
lfoot -15.4981 6.65111
ltoes -1.12858
243
root -20.422 16.454 0.597594 51.9824 80.3742 52.4674
lowerback 10.9278 3.18922 -9.85824
upperback 2.99676 3.21438 -2.88284
thorax -3.32222 1.71534 2.05037
lowerneck -23.5467 0.611564 0.741061
upperneck 18.8025 0.397841 0.889889
head 9.84677 0.359216 0.254913
rclavicle 1.06847e-014 -2.14687e-014
rhumerus -36.2038 4.30766 -89.7215
rradius 33.606
rwrist 1.36042
rhand -10.374 -31.677
rfingers 7.12502
rthumb 15.6235 -61.0661
lclavicle 1.06847e-014 -2.14687e-014
lhumerus -28.8639 -2.54241 84.3484
lradius 22.7589
lwrist -19.262
lhand -12.3348 -26.6724
lfingers 7.12502
lthumb 13.7344 2.85432
rfemur 1.94522 3.79642 8.00513
rtibia 59.0693
rfoot -1.6232 -5.70899
rtoes 24.0501
lfemur -14.041 -0.468742 -28.8782
ltibia 28.1299
lfoot -15.644 6.61152
ltoes -1.12223
